<svg width="16" height="12" viewBox="0 0 16 12" fill="none" xmlns="http://www.w3.org/2000/svg">
<path d="M9.64006 10.8161C9.45004 10.626 9.35882 10.3964 9.36643 10.1272C9.37466 9.85801 9.47379 9.6284 9.66381 9.43838L12.3479 6.75429H1.75407C1.48487 6.75429 1.25906 6.66308 1.07664 6.48066C0.89485 6.29887 0.803955 6.07338 0.803955 5.80417C0.803955 5.53497 0.89485 5.30916 1.07664 5.12674C1.25906 4.94495 1.48487 4.85406 1.75407 4.85406H12.3479L9.64006 2.14622C9.45004 1.95619 9.35502 1.73038 9.35502 1.46878C9.35502 1.20782 9.45004 0.982322 9.64006 0.792299C9.83008 0.602275 10.0559 0.507263 10.3175 0.507263C10.5785 0.507263 10.804 0.602275 10.994 0.792299L15.3408 5.13909C15.4358 5.2341 15.5032 5.33703 15.5431 5.44788C15.5824 5.55873 15.6021 5.67749 15.6021 5.80417C15.6021 5.93086 15.5824 6.04962 15.5431 6.16047C15.5032 6.27132 15.4358 6.37425 15.3408 6.46926L10.9702 10.8398C10.796 11.014 10.5785 11.1011 10.3175 11.1011C10.0559 11.1011 9.83008 11.0061 9.64006 10.8161Z" fill="white"/>
</svg>
