<svg width="15" height="15" viewBox="0 0 15 15" fill="none" xmlns="http://www.w3.org/2000/svg">
<path fill-rule="evenodd" clip-rule="evenodd" d="M2.90047 0.833907C3.42105 0.312894 4.26547 0.312658 4.78634 0.833382L7.24817 3.2945C7.76884 3.81503 7.76908 4.65905 7.24869 5.17987L6.37612 6.05317L9.21232 8.88892L10.0843 8.01619C10.6049 7.49517 11.4493 7.49494 11.9702 8.01566L14.1673 10.2121C14.688 10.7327 14.6882 11.5767 14.1678 12.0975L12.7144 13.5521C11.8622 14.405 10.5503 14.5954 9.49089 14.0198C5.89261 12.065 2.9368 9.10962 0.981133 5.51191C0.405548 4.45304 0.594889 3.14139 1.44686 2.28872L2.90047 0.833907ZM6.30549 4.23745L3.84367 1.77633L2.39006 3.23114C1.95563 3.66593 1.85896 4.33497 2.15258 4.87513C3.98533 8.24671 6.75536 11.0164 10.1274 12.8482C10.6676 13.1417 11.3366 13.0446 11.7712 12.6097L13.2246 11.1551L11.0275 8.9586L9.21278 10.7748L4.49081 6.05363L6.30549 4.23745Z" fill="#F5841F"/>
</svg>
