<svg width="17" height="17" viewBox="0 0 17 17" fill="none" xmlns="http://www.w3.org/2000/svg">
<path fill-rule="evenodd" clip-rule="evenodd" d="M1.834 3.83333H15.1673V5.00929L8.50067 8.34262L1.834 5.00929V3.83333ZM0.500671 3.83333C0.500671 3.09695 1.09763 2.5 1.834 2.5H15.1673C15.9037 2.5 16.5007 3.09695 16.5007 3.83333V5.83333V12.5C16.5007 13.6046 15.6052 14.5 14.5007 14.5H2.50067C1.3961 14.5 0.500671 13.6046 0.500671 12.5V5.83333V3.83333ZM1.834 6.5V12.5C1.834 12.8682 2.13248 13.1667 2.50067 13.1667H14.5007C14.8689 13.1667 15.1673 12.8682 15.1673 12.5V6.5L8.50067 9.83333L1.834 6.5Z" fill="#F5841F"/>
</svg>
