<svg width="35" height="35" viewBox="0 0 35 35" fill="none" xmlns="http://www.w3.org/2000/svg">
<path d="M17.5 0C19.8206 0 22.0462 0.921872 23.6872 2.56282C25.3281 4.20376 26.25 6.42936 26.25 8.75C26.25 11.0706 25.3281 13.2962 23.6872 14.9372C22.0462 16.5781 19.8206 17.5 17.5 17.5C15.1794 17.5 12.9538 16.5781 11.3128 14.9372C9.67187 13.2962 8.75 11.0706 8.75 8.75C8.75 6.42936 9.67187 4.20376 11.3128 2.56282C12.9538 0.921872 15.1794 0 17.5 0ZM17.5 35C17.5 35 35 35 35 30.625C35 25.375 26.4687 19.6875 17.5 19.6875C8.53125 19.6875 0 25.375 0 30.625C0 35 17.5 35 17.5 35Z" fill="white"/>
</svg>
