<svg width="343" height="343" viewBox="0 0 343 343" fill="none" xmlns="http://www.w3.org/2000/svg">
<rect width="342.075" height="342.075" rx="100" fill="white"/>
<path d="M241.036 224.186L292.075 275.213L275.213 292.075L224.186 241.036C205.2 256.256 181.584 264.535 157.25 264.5C98.048 264.5 50 216.452 50 157.25C50 98.048 98.048 50 157.25 50C216.452 50 264.5 98.048 264.5 157.25C264.535 181.584 256.256 205.2 241.036 224.186ZM217.131 215.344C232.252 199.789 240.697 178.943 240.667 157.25C240.667 111.168 203.332 73.8333 157.25 73.8333C111.168 73.8333 73.8333 111.168 73.8333 157.25C73.8333 203.332 111.168 240.667 157.25 240.667C178.943 240.697 199.789 232.252 215.344 217.131L217.131 215.344Z" fill="#16213C"/>
<path d="M105.537 155.712L132.249 182.38C133.513 183.642 134.145 185.247 134.145 187.197C134.145 189.147 133.513 190.753 132.249 192.015C130.985 193.276 129.377 193.907 127.424 193.907C125.47 193.907 123.862 193.276 122.598 192.015L90.8892 160.357C90.1999 159.669 89.7104 158.923 89.4209 158.12C89.1314 157.318 88.9912 156.457 89.0004 155.54C89.0096 154.622 89.1544 153.762 89.4347 152.959C89.715 152.156 90.2022 151.41 90.8961 150.722L122.605 119.065C123.984 117.688 125.622 117 127.52 117C129.418 117 131.054 117.688 132.428 119.065C133.802 120.441 134.491 122.077 134.496 123.972C134.501 125.866 133.811 127.5 132.428 128.872L105.537 155.712ZM204.456 155.368L177.745 128.7C176.481 127.438 175.849 125.832 175.849 123.882C175.849 121.932 176.481 120.326 177.745 119.065C179.008 117.803 180.617 117.172 182.57 117.172C184.523 117.172 186.131 117.803 187.395 119.065L219.104 150.722C219.794 151.41 220.283 152.156 220.573 152.959C220.862 153.762 221.004 154.622 221 155.54C220.995 156.457 220.853 157.318 220.573 158.12C220.292 158.923 219.803 159.669 219.104 160.357L187.395 192.015C186.016 193.391 184.408 194.052 182.57 193.997C180.732 193.942 179.123 193.224 177.745 191.843C176.366 190.462 175.677 188.828 175.677 186.943C175.677 185.057 176.366 183.421 177.745 182.036L204.456 155.368Z" fill="#F5841F"/>
<path d="M133.905 145.98C131.362 145.98 130.09 146.82 130.09 148.5C130.09 149.247 130.405 149.818 131.035 150.215C131.362 150.402 131.887 150.647 132.61 150.95C133.333 151.23 134.29 151.557 135.48 151.93C136.647 152.303 137.627 152.688 138.42 153.085C139.213 153.482 139.855 153.948 140.345 154.485C140.835 154.998 141.185 155.605 141.395 156.305C141.628 157.005 141.745 157.845 141.745 158.825C141.745 160.085 141.547 161.193 141.15 162.15C140.753 163.083 140.193 163.865 139.47 164.495C138.747 165.125 137.883 165.603 136.88 165.93C135.877 166.257 134.757 166.42 133.52 166.42C131.7 166.42 129.472 166.14 126.835 165.58L125.575 165.335L126.065 161.59C129.192 162.01 131.583 162.22 133.24 162.22C135.713 162.22 136.95 161.193 136.95 159.14C136.95 158.393 136.67 157.81 136.11 157.39C135.503 156.97 134.36 156.515 132.68 156.025C131.327 155.628 130.172 155.22 129.215 154.8C128.282 154.357 127.523 153.855 126.94 153.295C126.357 152.712 125.937 152.058 125.68 151.335C125.423 150.612 125.295 149.783 125.295 148.85C125.295 146.447 126.007 144.673 127.43 143.53C128.877 142.363 130.872 141.78 133.415 141.78C134.278 141.78 135.258 141.838 136.355 141.955C137.452 142.072 138.665 142.247 139.995 142.48L141.255 142.725L140.87 146.54C139.213 146.353 137.802 146.213 136.635 146.12C135.492 146.027 134.582 145.98 133.905 145.98ZM161.028 166H145.628V142.2H161.028V146.4H150.458V151.965H158.928V156.095H150.458V161.8H161.028V166ZM173.828 166.42C172.008 166.42 170.468 166.175 169.208 165.685C167.971 165.195 166.956 164.46 166.163 163.48C165.393 162.477 164.833 161.205 164.483 159.665C164.133 158.125 163.958 156.305 163.958 154.205C163.958 152.105 164.133 150.285 164.483 148.745C164.833 147.182 165.393 145.887 166.163 144.86C166.956 143.81 167.971 143.04 169.208 142.55C170.468 142.037 172.008 141.78 173.828 141.78C175.648 141.78 177.176 142.037 178.413 142.55C179.673 143.04 180.688 143.81 181.458 144.86C182.251 145.887 182.823 147.182 183.173 148.745C183.523 150.285 183.698 152.105 183.698 154.205C183.698 156.002 183.558 157.658 183.278 159.175C183.021 160.668 182.52 161.952 181.773 163.025C181.05 164.098 180.046 164.938 178.763 165.545C177.503 166.128 175.858 166.42 173.828 166.42ZM169.978 160.365C170.655 161.602 171.938 162.22 173.828 162.22C174.785 162.22 175.566 162.08 176.173 161.8C176.803 161.497 177.305 161.03 177.678 160.4C178.075 159.747 178.343 158.918 178.483 157.915C178.646 156.888 178.728 155.652 178.728 154.205C178.728 152.758 178.646 151.522 178.483 150.495C178.32 149.468 178.051 148.617 177.678 147.94C177.305 147.263 176.803 146.773 176.173 146.47C175.543 146.143 174.761 145.98 173.828 145.98C172.895 145.98 172.113 146.143 171.483 146.47C170.853 146.773 170.351 147.263 169.978 147.94C169.605 148.617 169.336 149.468 169.173 150.495C169.01 151.522 168.928 152.758 168.928 154.205C168.928 157.075 169.278 159.128 169.978 160.365Z" fill="#F5841F"/>
</svg>
